{
  "accessors": [
    {
      "bufferView": 1,
      "componentType": 5126,
      "count": 65532,
      "max": [
        2.0668120384216309,
        4.4184622764587402,
        2.2614505290985107
      ],
      "min": [
        0.15432107448577881,
        1.6185919046401978,
        0.059651732444763184
      ],
      "type": "VEC3"
    },
    {
      "bufferView": 1,
      "byteOffset": 786384,
      "componentType": 5126,
      "count": 65532,
      "max": [
        0.99997437000274658,
        0.99996352195739746,
        0.99998724460601807
      ],
      "min": [
        -0.99995142221450806,
        -0.99998492002487183,
        -0.99992191791534424
      ],
      "type": "VEC3"
    },
    {
      "bufferView": 0,
      "componentType": 5125,
      "count": 327069,
      "max": [
        65531
      ],
      "min": [
        0
      ],
      "type": "SCALAR"
    },
    {
      "bufferView": 1,
      "byteOffset": 1572768,
      "componentType": 5126,
      "count": 65532,
      "max": [
        1.8649091720581055,
        4.4500923156738281,
        2.6109309196472168
      ],
      "min": [
        0.53387945890426636,
        1.0579901933670044,
        0
      ],
      "type": "VEC3"
    },
    {
      "bufferView": 1,
      "byteOffset": 2359152,
      "componentType": 5126,
      "count": 65532,
      "max": [
        0.99994403123855591,
        0.9999849796295166,
        1
      ],
      "min": [
        -0.9999968409538269,
        -0.99999797344207764,
        -1
      ],
      "type": "VEC3"
    },
    {
      "bufferView": 0,
      "byteOffset": 1308276,
      "componentType": 5125,
      "count": 333909,
      "max": [
        65531
      ],
      "min": [
        0
      ],
      "type": "SCALAR"
    },
    {
      "bufferView": 1,
      "byteOffset": 3145536,
      "componentType": 5126,
      "count": 65532,
      "max": [
        2.0632467269897461,
        4.4700918197631836,
        2.444749116897583
      ],
      "min": [
        0.14291846752166748,
        0,
        0.30817043781280518
      ],
      "type": "VEC3"
    },
    {
      "bufferView": 1,
      "byteOffset": 3931920,
      "componentType": 5126,
      "count": 65532,
      "max": [
        0.99999988079071045,
        0.999977707862854,
        0.9999658465385437
      ],
      "min": [
        -0.99999994039535522,
        -0.99998509883880615,
        -0.99996960163116455
      ],
      "type": "VEC3"
    },
    {
      "bufferView": 0,
      "byteOffset": 2643912,
      "componentType": 5125,
      "count": 320151,
      "max": [
        65531
      ],
      "min": [
        0
      ],
      "type": "SCALAR"
    },
    {
      "bufferView": 1,
      "byteOffset": 4718304,
      "componentType": 5126,
      "count": 65532,
      "max": [
        2.0431504249572754,
        4.5649337768554688,
        2.4715042114257812
      ],
      "min": [
        0.0016394853591918945,
        1.3669043779373169,
        0
      ],
      "type": "VEC3"
    },
    {
      "bufferView": 1,
      "byteOffset": 5504688,
      "componentType": 5126,
      "count": 65532,
      "max": [
        1,
        1,
        0.99914085865020752
      ],
      "min": [
        -1,
        -1,
        -0.99999380111694336
      ],
      "type": "VEC3"
    },
    {
      "bufferView": 0,
      "byteOffset": 3924516,
      "componentType": 5125,
      "count": 323349,
      "max": [
        65531
      ],
      "min": [
        0
      ],
      "type": "SCALAR"
    },
    {
      "bufferView": 1,
      "byteOffset": 6291072,
      "componentType": 5126,
      "count": 65532,
      "max": [
        2.0459399223327637,
        4.395637035369873,
        2.4252042770385742
      ],
      "min": [
        0.22535562515258789,
        1.1215934753417969,
        0.055158257484436035
      ],
      "type": "VEC3"
    },
    {
      "bufferView": 1,
      "byteOffset": 7077456,
      "componentType": 5126,
      "count": 65532,
      "max": [
        0.99995356798171997,
        0.99999541044235229,
        0.99995756149291992
      ],
      "min": [
        -0.99999308586120605,
        -0.99993699789047241,
        -0.99996006488800049
      ],
      "type": "VEC3"
    },
    {
      "bufferView": 0,
      "byteOffset": 5217912,
      "componentType": 5125,
      "count": 322230,
      "max": [
        65531
      ],
      "min": [
        0
      ],
      "type": "SCALAR"
    },
    {
      "bufferView": 1,
      "byteOffset": 7863840,
      "componentType": 5126,
      "count": 65532,
      "max": [
        2.0717678070068359,
        4.5684080123901367,
        2.5051889419555664
      ],
      "min": [
        0,
        0.2767486572265625,
        0.052896261215209961
      ],
      "type": "VEC3"
    },
    {
      "bufferView": 1,
      "byteOffset": 8650224,
      "componentType": 5126,
      "count": 65532,
      "max": [
        0.99999678134918213,
        0.99996352195739746,
        0.99995368719100952
      ],
      "min": [
        -0.99999731779098511,
        -0.99998265504837036,
        -0.99997240304946899
      ],
      "type": "VEC3"
    },
    {
      "bufferView": 0,
      "byteOffset": 6506832,
      "componentType": 5125,
      "count": 317316,
      "max": [
        65531
      ],
      "min": [
        0
      ],
      "type": "SCALAR"
    },
    {
      "bufferView": 1,
      "byteOffset": 9436608,
      "componentType": 5126,
      "count": 65532,
      "max": [
        2.0551726818084717,
        4.5225067138671875,
        2.5463621616363525
      ],
      "min": [
        0.086899161338806152,
        0.014780044555664062,
        0.060608863830566406
      ],
      "type": "VEC3"
    },
    {
      "bufferView": 1,
      "byteOffset": 10222992,
      "componentType": 5126,
      "count": 65532,
      "max": [
        0.99999994039535522,
        0.99998188018798828,
        0.99996739625930786
      ],
      "min": [
        -0.99997419118881226,
        -0.99999266862869263,
        -0.99994778633117676
      ],
      "type": "VEC3"
    },
    {
      "bufferView": 0,
      "byteOffset": 7776096,
      "componentType": 5125,
      "count": 300099,
      "max": [
        65531
      ],
      "min": [
        0
      ],
      "type": "SCALAR"
    },
    {
      "bufferView": 1,
      "byteOffset": 11009376,
      "componentType": 5126,
      "count": 65533,
      "max": [
        2.0711531639099121,
        4.5600323677062988,
        2.6099166870117188
      ],
      "min": [
        0.0031626224517822266,
        0.091289877891540527,
        0.052896261215209961
      ],
      "type": "VEC3"
    },
    {
      "bufferView": 1,
      "byteOffset": 11795772,
      "componentType": 5126,
      "count": 65533,
      "max": [
        0.99998712539672852,
        0.99998188018798828,
        0.99996918439865112
      ],
      "min": [
        -0.99997192621231079,
        -0.9999847412109375,
        -0.99994516372680664
      ],
      "type": "VEC3"
    },
    {
      "bufferView": 0,
      "byteOffset": 8976492,
      "componentType": 5125,
      "count": 190773,
      "max": [
        65532
      ],
      "min": [
        0
      ],
      "type": "SCALAR"
    },
    {
      "bufferView": 1,
      "byteOffset": 12582168,
      "componentType": 5126,
      "count": 30388,
      "max": [
        2.0692358016967773,
        4.5649337768554688,
        2.6097540855407715
      ],
      "min": [
        0.011676430702209473,
        0.02051389217376709,
        0.05409705638885498
      ],
      "type": "VEC3"
    },
    {
      "bufferView": 1,
      "byteOffset": 12946824,
      "componentType": 5126,
      "count": 30388,
      "max": [
        0.99999678134918213,
        0.99988150596618652,
        0.99995553493499756
      ],
      "min": [
        -0.99995929002761841,
        -0.99999213218688965,
        -0.99986398220062256
      ],
      "type": "VEC3"
    },
    {
      "bufferView": 0,
      "byteOffset": 9739584,
      "componentType": 5125,
      "count": 42072,
      "max": [
        30387
      ],
      "min": [
        0
      ],
      "type": "SCALAR"
    }
  ],
  "asset": {
    "extras": {
      "author": "tony-eight (https://sketchfab.com/tony-eight)",
      "license": "CC-BY-NC-4.0 (http://creativecommons.org/licenses/by-nc/4.0/)",
      "source": "https://sketchfab.com/models/9ff6160ad7b5470fbc4e3d52a375b4b8",
      "title": "Roman Sphinx"
    },
    "generator": "Sketchfab-3.18.7",
    "version": "2.0"
  },
  "bufferViews": [
    {
      "buffer": 0,
      "byteLength": 9907872,
      "byteOffset": 0,
      "name": "floatBufferViews",
      "target": 34963
    },
    {
      "buffer": 0,
      "byteLength": 13311480,
      "byteOffset": 9907872,
      "byteStride": 12,
      "name": "floatBufferViews",
      "target": 34962
    }
  ],
  "buffers": [
    {
      "byteLength": 23219352,
      "uri": "scene.bin"
    }
  ],
  "materials": [
    {
      "doubleSided": true,
      "emissiveFactor": [
        0,
        0,
        0
      ],
      "name": "material_0",
      "pbrMetallicRoughness": {
        "baseColorFactor": [
          0.1620293756,
          0.18116424419999999,
          0.2422811225,
          1
        ],
        "metallicFactor": 0.23999999999999999,
        "roughnessFactor": 0.58999999999999997
      }
    }
  ],
  "meshes": [
    {
      "primitives": [
        {
          "attributes": {
            "NORMAL": 1,
            "POSITION": 0
          },
          "indices": 2,
          "material": 0,
          "mode": 4
        }
      ]
    },
    {
      "primitives": [
        {
          "attributes": {
            "NORMAL": 4,
            "POSITION": 3
          },
          "indices": 5,
          "material": 0,
          "mode": 4
        }
      ]
    },
    {
      "primitives": [
        {
          "attributes": {
            "NORMAL": 7,
            "POSITION": 6
          },
          "indices": 8,
          "material": 0,
          "mode": 4
        }
      ]
    },
    {
      "primitives": [
        {
          "attributes": {
            "NORMAL": 10,
            "POSITION": 9
          },
          "indices": 11,
          "material": 0,
          "mode": 4
        }
      ]
    },
    {
      "primitives": [
        {
          "attributes": {
            "NORMAL": 13,
            "POSITION": 12
          },
          "indices": 14,
          "material": 0,
          "mode": 4
        }
      ]
    },
    {
      "primitives": [
        {
          "attributes": {
            "NORMAL": 16,
            "POSITION": 15
          },
          "indices": 17,
          "material": 0,
          "mode": 4
        }
      ]
    },
    {
      "primitives": [
        {
          "attributes": {
            "NORMAL": 19,
            "POSITION": 18
          },
          "indices": 20,
          "material": 0,
          "mode": 4
        }
      ]
    },
    {
      "primitives": [
        {
          "attributes": {
            "NORMAL": 22,
            "POSITION": 21
          },
          "indices": 23,
          "material": 0,
          "mode": 4
        }
      ]
    },
    {
      "primitives": [
        {
          "attributes": {
            "NORMAL": 25,
            "POSITION": 24
          },
          "indices": 26,
          "material": 0,
          "mode": 4
        }
      ]
    }
  ],
  "nodes": [
    {
      "children": [
        1
      ],
      "name": "RootNode (gltf orientation matrix)",
      "rotation": [
        -0.70710678118654746,
        -0,
        -0,
        0.70710678118654757
      ]
    },
    {
      "children": [
        2
      ],
      "name": "RootNode (model correction matrix)"
    },
    {
      "children": [
        3
      ],
      "matrix": [
        1,
        0,
        0,
        0,
        0,
        1,
        0,
        0,
        0,
        0,
        1,
        0,
        -1.4792166948318481,
        -1.7098519802093506,
        -1.1929433345794678,
        1
      ],
      "name": "roman sphinx_export_01.OBJ.cleaner.gles"
    },
    {
      "children": [
        4,
        5,
        6,
        7,
        8,
        9,
        10,
        11,
        12
      ],
      "name": ""
    },
    {
      "mesh": 0,
      "name": ""
    },
    {
      "mesh": 1,
      "name": ""
    },
    {
      "mesh": 2,
      "name": ""
    },
    {
      "mesh": 3,
      "name": ""
    },
    {
      "mesh": 4,
      "name": ""
    },
    {
      "mesh": 5,
      "name": ""
    },
    {
      "mesh": 6,
      "name": ""
    },
    {
      "mesh": 7,
      "name": ""
    },
    {
      "mesh": 8,
      "name": ""
    }
  ],
  "scene": 0,
  "scenes": [
    {
      "name": "OSG_Scene",
      "nodes": [
        0
      ]
    }
  ]
}

