{
  "accessors": [
    {
      "bufferView": 2,
      "componentType": 5126,
      "count": 65532,
      "max": [
        187.34024047851562,
        249.47183227539062,
        26.652873992919922
      ],
      "min": [
        -187.34024047851562,
        -249.47183227539062,
        -9.4452877044677734
      ],
      "type": "VEC3"
    },
    {
      "bufferView": 2,
      "byteOffset": 786384,
      "componentType": 5126,
      "count": 65532,
      "max": [
        1,
        1,
        1
      ],
      "min": [
        -1,
        -1,
        -1
      ],
      "type": "VEC3"
    },
    {
      "bufferView": 3,
      "componentType": 5126,
      "count": 65532,
      "max": [
        1,
        0.99878668785095215,
        1,
        1
      ],
      "min": [
        -1,
        -0.99878627061843872,
        -1,
        1
      ],
      "type": "VEC4"
    },
    {
      "bufferView": 3,
      "byteOffset": 1048512,
      "componentType": 5126,
      "count": 65532,
      "max": [
        1,
        1,
        1,
        1
      ],
      "min": [
        0.058823529630899429,
        0.0039215688593685627,
        0.0039215688593685627,
        1
      ],
      "type": "VEC4"
    },
    {
      "bufferView": 1,
      "componentType": 5126,
      "count": 65532,
      "max": [
        0.91272997856140137,
        0.99800002574920654
      ],
      "min": [
        0.0018200000049546361,
        0.0019900000188499689
      ],
      "type": "VEC2"
    },
    {
      "bufferView": 0,
      "componentType": 5125,
      "count": 343368,
      "max": [
        65531
      ],
      "min": [
        0
      ],
      "type": "SCALAR"
    },
    {
      "bufferView": 2,
      "byteOffset": 1572768,
      "componentType": 5126,
      "count": 17612,
      "max": [
        187.32363891601562,
        249.45521545410156,
        24.85491943359375
      ],
      "min": [
        -187.34024047851562,
        -249.45767211914062,
        -9.2614078521728516
      ],
      "type": "VEC3"
    },
    {
      "bufferView": 2,
      "byteOffset": 1784112,
      "componentType": 5126,
      "count": 17612,
      "max": [
        1,
        1,
        0.99975967407226562
      ],
      "min": [
        -1,
        -1,
        -0.99413383007049561
      ],
      "type": "VEC3"
    },
    {
      "bufferView": 3,
      "byteOffset": 2097024,
      "componentType": 5126,
      "count": 17612,
      "max": [
        0.99430716037750244,
        0.99878627061843872,
        1,
        1
      ],
      "min": [
        -0.96928268671035767,
        -0.99878621101379395,
        -1,
        1
      ],
      "type": "VEC4"
    },
    {
      "bufferView": 3,
      "byteOffset": 2378816,
      "componentType": 5126,
      "count": 17612,
      "max": [
        1,
        1,
        1,
        1
      ],
      "min": [
        0.058823529630899429,
        0.0039215688593685627,
        0.0039215688593685627,
        1
      ],
      "type": "VEC4"
    },
    {
      "bufferView": 1,
      "byteOffset": 524256,
      "componentType": 5126,
      "count": 17612,
      "max": [
        0.85531997680664062,
        0.99800002574920654
      ],
      "min": [
        0.36261001229286194,
        0.0019900000188499689
      ],
      "type": "VEC2"
    },
    {
      "bufferView": 0,
      "byteOffset": 1373472,
      "componentType": 5125,
      "count": 73656,
      "max": [
        17611
      ],
      "min": [
        0
      ],
      "type": "SCALAR"
    },
    {
      "bufferView": 2,
      "byteOffset": 1995456,
      "componentType": 5126,
      "count": 50959,
      "max": [
        149.99995422363281,
        199.99998474121094,
        9.8848066329956055
      ],
      "min": [
        -149.99995422363281,
        -199.99998474121094,
        -5.0013113021850586
      ],
      "type": "VEC3"
    },
    {
      "bufferView": 2,
      "byteOffset": 2606964,
      "componentType": 5126,
      "count": 50959,
      "max": [
        1,
        1,
        1
      ],
      "min": [
        -1,
        -1,
        -1
      ],
      "type": "VEC3"
    },
    {
      "bufferView": 3,
      "byteOffset": 2660608,
      "componentType": 5126,
      "count": 50959,
      "max": [
        1,
        1,
        1,
        1
      ],
      "min": [
        -0.65609282255172729,
        -1,
        -1,
        -1
      ],
      "type": "VEC4"
    },
    {
      "bufferView": 1,
      "byteOffset": 665152,
      "componentType": 5126,
      "count": 50959,
      "max": [
        0.87459999322891235,
        0.99962997436523438
      ],
      "min": [
        0.125,
        0.00036000000545755029
      ],
      "type": "VEC2"
    },
    {
      "bufferView": 0,
      "byteOffset": 1668096,
      "componentType": 5125,
      "count": 290661,
      "max": [
        50958
      ],
      "min": [
        0
      ],
      "type": "SCALAR"
    }
  ],
  "asset": {
    "extras": {
      "author": "Guido Salimbeni (https://sketchfab.com/3dsmithery)",
      "license": "CC-BY-4.0 (http://creativecommons.org/licenses/by/4.0/)",
      "source": "https://sketchfab.com/models/e6d25ffb257a426dab5cf7767eb86900",
      "title": "bird snowing again"
    },
    "generator": "Sketchfab-3.20.7",
    "version": "2.0"
  },
  "bufferViews": [
    {
      "buffer": 0,
      "byteLength": 2830740,
      "byteOffset": 0,
      "name": "floatBufferViews",
      "target": 34963
    },
    {
      "buffer": 0,
      "byteLength": 1072824,
      "byteOffset": 2830740,
      "byteStride": 8,
      "name": "floatBufferViews",
      "target": 34962
    },
    {
      "buffer": 0,
      "byteLength": 3218472,
      "byteOffset": 3903564,
      "byteStride": 12,
      "name": "floatBufferViews",
      "target": 34962
    },
    {
      "buffer": 0,
      "byteLength": 3475952,
      "byteOffset": 7122036,
      "byteStride": 16,
      "name": "floatBufferViews",
      "target": 34962
    }
  ],
  "buffers": [
    {
      "byteLength": 10597988,
      "uri": "scene.bin"
    }
  ],
  "images": [
    {
      "uri": "textures/defaultMat_0_baseColor.jpeg"
    },
    {
      "uri": "textures/defaultMat_baseColor.jpeg"
    }
  ],
  "materials": [
    {
      "doubleSided": true,
      "emissiveFactor": [
        0,
        0,
        0
      ],
      "name": "defaultMat",
      "pbrMetallicRoughness": {
        "baseColorFactor": [
          1,
          1,
          1,
          1
        ],
        "baseColorTexture": {
          "index": 1,
          "texCoord": 0
        },
        "metallicFactor": 0,
        "roughnessFactor": 0.59999999999999998
      }
    },
    {
      "doubleSided": true,
      "emissiveFactor": [
        0,
        0,
        0
      ],
      "name": "defaultMat_0",
      "pbrMetallicRoughness": {
        "baseColorFactor": [
          1,
          1,
          1,
          1
        ],
        "baseColorTexture": {
          "index": 0,
          "texCoord": 0
        },
        "metallicFactor": 0,
        "roughnessFactor": 0.59999999999999998
      }
    }
  ],
  "meshes": [
    {
      "primitives": [
        {
          "attributes": {
            "COLOR_0": 3,
            "NORMAL": 1,
            "POSITION": 0,
            "TANGENT": 2,
            "TEXCOORD_0": 4
          },
          "indices": 5,
          "material": 1,
          "mode": 4
        }
      ]
    },
    {
      "primitives": [
        {
          "attributes": {
            "COLOR_0": 9,
            "NORMAL": 7,
            "POSITION": 6,
            "TANGENT": 8,
            "TEXCOORD_0": 10
          },
          "indices": 11,
          "material": 1,
          "mode": 4
        }
      ]
    },
    {
      "primitives": [
        {
          "attributes": {
            "NORMAL": 13,
            "POSITION": 12,
            "TANGENT": 14,
            "TEXCOORD_0": 15
          },
          "indices": 16,
          "material": 0,
          "mode": 4
        }
      ]
    }
  ],
  "nodes": [
    {
      "children": [
        1
      ],
      "name": "RootNode (gltf orientation matrix)",
      "rotation": [
        -0.70710678118654746,
        -0,
        -0,
        0.70710678118654757
      ]
    },
    {
      "children": [
        2
      ],
      "matrix": [
        1,
        0,
        0,
        0,
        0,
        -0.098661497235298157,
        0.9951210618019104,
        0,
        0,
        -0.9951210618019104,
        -0.098661497235298157,
        0,
        0,
        8.5612831115722656,
        9.4530458450317383,
        1
      ],
      "name": "RootNode (model correction matrix)"
    },
    {
      "children": [
        3,
        6
      ],
      "name": "zbrush_concat.osgb.cleaner"
    },
    {
      "children": [
        4,
        5
      ],
      "name": "/sketchfab-data/processing/ba2a8d653e584e2b9142dc8cf86203e0/preprocess/SubTool-1-9567205.OBJ"
    },
    {
      "mesh": 0,
      "name": ""
    },
    {
      "mesh": 1,
      "name": ""
    },
    {
      "children": [
        7
      ],
      "name": "/sketchfab-data/processing/ba2a8d653e584e2b9142dc8cf86203e0/preprocess/SubTool-0-9567205.OBJ"
    },
    {
      "mesh": 2,
      "name": ""
    }
  ],
  "samplers": [
    {
      "magFilter": 9729,
      "minFilter": 9987,
      "wrapS": 10497,
      "wrapT": 10497
    }
  ],
  "scene": 0,
  "scenes": [
    {
      "name": "OSG_Scene",
      "nodes": [
        0
      ]
    }
  ],
  "textures": [
    {
      "sampler": 0,
      "source": 0
    },
    {
      "sampler": 0,
      "source": 1
    }
  ]
}

