{
  "accessors": [
    {
      "bufferView": 2,
      "componentType": 5126,
      "count": 65532,
      "max": [
        3.0802102088928223,
        2.7571220397949219,
        4.657249927520752
      ],
      "min": [
        0.00087797641754150391,
        0.91179203987121582,
        0.0019130706787109375
      ],
      "type": "VEC3"
    },
    {
      "bufferView": 2,
      "byteOffset": 786384,
      "componentType": 5126,
      "count": 65532,
      "max": [
        0.99999970197677612,
        0.99995040893554688,
        0.99991214275360107
      ],
      "min": [
        -0.99999827146530151,
        -0.99982941150665283,
        -0.99917024374008179
      ],
      "type": "VEC3"
    },
    {
      "bufferView": 3,
      "componentType": 5126,
      "count": 65532,
      "max": [
        0.99972724914550781,
        0.9999995231628418,
        1,
        1
      ],
      "min": [
        -0.99813193082809448,
        -0.99580901861190796,
        -0.9992331862449646,
        -1
      ],
      "type": "VEC4"
    },
    {
      "bufferView": 1,
      "componentType": 5126,
      "count": 65532,
      "max": [
        0.98351997137069702,
        1.0014350414276123
      ],
      "min": [
        0.0046500000171363354,
        0.0028009999077767134
      ],
      "type": "VEC2"
    },
    {
      "bufferView": 0,
      "componentType": 5125,
      "count": 351372,
      "max": [
        65531
      ],
      "min": [
        0
      ],
      "type": "SCALAR"
    },
    {
      "bufferView": 2,
      "byteOffset": 1572768,
      "componentType": 5126,
      "count": 65532,
      "max": [
        3.0774049758911133,
        2.3310880661010742,
        4.6494450569152832
      ],
      "min": [
        0.0018450021743774414,
        0.75577801465988159,
        0.00013995170593261719
      ],
      "type": "VEC3"
    },
    {
      "bufferView": 2,
      "byteOffset": 2359152,
      "componentType": 5126,
      "count": 65532,
      "max": [
        0.99999797344207764,
        0.99461448192596436,
        0.99980497360229492
      ],
      "min": [
        -0.99999946355819702,
        -0.99998879432678223,
        -0.99999046325683594
      ],
      "type": "VEC3"
    },
    {
      "bufferView": 3,
      "byteOffset": 1048512,
      "componentType": 5126,
      "count": 65532,
      "max": [
        0.99954622983932495,
        0.9999995231628418,
        0.99999487400054932,
        1
      ],
      "min": [
        -0.9997367262840271,
        -0.99894773960113525,
        -0.99992662668228149,
        -1
      ],
      "type": "VEC4"
    },
    {
      "bufferView": 1,
      "byteOffset": 524256,
      "componentType": 5126,
      "count": 65532,
      "max": [
        0.98950797319412231,
        0.99988800287246704
      ],
      "min": [
        0.0049239997752010822,
        0.02658499963581562
      ],
      "type": "VEC2"
    },
    {
      "bufferView": 0,
      "byteOffset": 1405488,
      "componentType": 5125,
      "count": 322842,
      "max": [
        65531
      ],
      "min": [
        0
      ],
      "type": "SCALAR"
    },
    {
      "bufferView": 2,
      "byteOffset": 3145536,
      "componentType": 5126,
      "count": 65532,
      "max": [
        2.9193081855773926,
        1.7039389610290527,
        4.4738178253173828
      ],
      "min": [
        0.38427400588989258,
        0.12746703624725342,
        0.00040292739868164062
      ],
      "type": "VEC3"
    },
    {
      "bufferView": 2,
      "byteOffset": 3931920,
      "componentType": 5126,
      "count": 65532,
      "max": [
        0.99999815225601196,
        0.99065214395523071,
        0.99999547004699707
      ],
      "min": [
        -0.99999946355819702,
        -0.99998635053634644,
        -0.99760615825653076
      ],
      "type": "VEC3"
    },
    {
      "bufferView": 3,
      "byteOffset": 2097024,
      "componentType": 5126,
      "count": 65532,
      "max": [
        0.99937194585800171,
        0.99999439716339111,
        0.9999995231628418,
        1
      ],
      "min": [
        -0.99997276067733765,
        -0.99925512075424194,
        -0.99984240531921387,
        -1
      ],
      "type": "VEC4"
    },
    {
      "bufferView": 1,
      "byteOffset": 1048512,
      "componentType": 5126,
      "count": 65532,
      "max": [
        0.99355500936508179,
        0.99962300062179565
      ],
      "min": [
        0.0015239999629557133,
        0.0033680000342428684
      ],
      "type": "VEC2"
    },
    {
      "bufferView": 0,
      "byteOffset": 2696856,
      "componentType": 5125,
      "count": 314691,
      "max": [
        65531
      ],
      "min": [
        0
      ],
      "type": "SCALAR"
    },
    {
      "bufferView": 2,
      "byteOffset": 4718304,
      "componentType": 5126,
      "count": 40940,
      "max": [
        2.801426887512207,
        2.5530581474304199,
        3.805016040802002
      ],
      "min": [
        0.28794705867767334,
        0,
        0.00039696693420410156
      ],
      "type": "VEC3"
    },
    {
      "bufferView": 2,
      "byteOffset": 5209584,
      "componentType": 5126,
      "count": 40940,
      "max": [
        0.99997997283935547,
        0.99968647956848145,
        0.99743300676345825
      ],
      "min": [
        -0.9999658465385437,
        -0.99999207258224487,
        -0.99972349405288696
      ],
      "type": "VEC3"
    },
    {
      "bufferView": 3,
      "byteOffset": 3145536,
      "componentType": 5126,
      "count": 40940,
      "max": [
        0.9999847412109375,
        0.99847501516342163,
        0.99998754262924194,
        1
      ],
      "min": [
        -0.99999964237213135,
        -0.99531012773513794,
        -0.98685145378112793,
        -1
      ],
      "type": "VEC4"
    },
    {
      "bufferView": 1,
      "byteOffset": 1572768,
      "componentType": 5126,
      "count": 40940,
      "max": [
        0.99600702524185181,
        0.99947601556777954
      ],
      "min": [
        0.015576000325381756,
        0.0041020000353455544
      ],
      "type": "VEC2"
    },
    {
      "bufferView": 0,
      "byteOffset": 3955620,
      "componentType": 5125,
      "count": 213246,
      "max": [
        40939
      ],
      "min": [
        0
      ],
      "type": "SCALAR"
    },
    {
      "bufferView": 2,
      "byteOffset": 5700864,
      "componentType": 5126,
      "count": 65532,
      "max": [
        3.0807380676269531,
        2.7460808753967285,
        4.6434516906738281
      ],
      "min": [
        0,
        0.9918520450592041,
        0.092223882675170898
      ],
      "type": "VEC3"
    },
    {
      "bufferView": 2,
      "byteOffset": 6487248,
      "componentType": 5126,
      "count": 65532,
      "max": [
        0.99999690055847168,
        0.9999241828918457,
        0.99941802024841309
      ],
      "min": [
        -0.99999457597732544,
        -0.99986141920089722,
        -0.99997144937515259
      ],
      "type": "VEC3"
    },
    {
      "bufferView": 3,
      "byteOffset": 3800576,
      "componentType": 5126,
      "count": 65532,
      "max": [
        0.99986368417739868,
        0.99997979402542114,
        0.99740314483642578,
        1
      ],
      "min": [
        -0.99998742341995239,
        -0.99998956918716431,
        -0.99971354007720947,
        -1
      ],
      "type": "VEC4"
    },
    {
      "bufferView": 1,
      "byteOffset": 1900288,
      "componentType": 5126,
      "count": 65532,
      "max": [
        0.99554800987243652,
        0.99936598539352417
      ],
      "min": [
        0.00061400001868605614,
        0.0032500000670552254
      ],
      "type": "VEC2"
    },
    {
      "bufferView": 0,
      "byteOffset": 4808604,
      "componentType": 5125,
      "count": 345477,
      "max": [
        65531
      ],
      "min": [
        0
      ],
      "type": "SCALAR"
    },
    {
      "bufferView": 2,
      "byteOffset": 7273632,
      "componentType": 5126,
      "count": 65532,
      "max": [
        3.0806541442871094,
        2.2532570362091064,
        4.6545867919921875
      ],
      "min": [
        0,
        0.91772305965423584,
        0.017629861831665039
      ],
      "type": "VEC3"
    },
    {
      "bufferView": 2,
      "byteOffset": 8060016,
      "componentType": 5126,
      "count": 65532,
      "max": [
        0.99999445676803589,
        0.99946033954620361,
        0.99981421232223511
      ],
      "min": [
        -0.99998635053634644,
        -0.99998331069946289,
        -0.99982357025146484
      ],
      "type": "VEC3"
    },
    {
      "bufferView": 3,
      "byteOffset": 4849088,
      "componentType": 5126,
      "count": 65532,
      "max": [
        0.99838590621948242,
        0.99990618228912354,
        0.99930810928344727,
        1
      ],
      "min": [
        -0.99982774257659912,
        -0.99989157915115356,
        -0.99986076354980469,
        -1
      ],
      "type": "VEC4"
    },
    {
      "bufferView": 1,
      "byteOffset": 2424544,
      "componentType": 5126,
      "count": 65532,
      "max": [
        0.9963340163230896,
        0.99950599670410156
      ],
      "min": [
        0.0018110000528395176,
        0.0034360000863671303
      ],
      "type": "VEC2"
    },
    {
      "bufferView": 0,
      "byteOffset": 6190512,
      "componentType": 5125,
      "count": 314421,
      "max": [
        65531
      ],
      "min": [
        0
      ],
      "type": "SCALAR"
    },
    {
      "bufferView": 2,
      "byteOffset": 8846400,
      "componentType": 5126,
      "count": 65532,
      "max": [
        2.5642080307006836,
        1.3568160533905029,
        4.3164029121398926
      ],
      "min": [
        0.59432804584503174,
        0.11015200614929199,
        0
      ],
      "type": "VEC3"
    },
    {
      "bufferView": 2,
      "byteOffset": 9632784,
      "componentType": 5126,
      "count": 65532,
      "max": [
        0.99983656406402588,
        0.99903744459152222,
        0.99998891353607178
      ],
      "min": [
        -0.99938875436782837,
        -0.99999988079071045,
        -0.99983501434326172
      ],
      "type": "VEC3"
    },
    {
      "bufferView": 3,
      "byteOffset": 5897600,
      "componentType": 5126,
      "count": 65532,
      "max": [
        0.99467730522155762,
        0.99994492530822754,
        0.99981057643890381,
        1
      ],
      "min": [
        -0.99976122379302979,
        -0.99998533725738525,
        -0.99999970197677612,
        -1
      ],
      "type": "VEC4"
    },
    {
      "bufferView": 1,
      "byteOffset": 2948800,
      "componentType": 5126,
      "count": 65532,
      "max": [
        0.98721998929977417,
        0.99936801195144653
      ],
      "min": [
        0.00066600000718608499,
        0.0042610000818967819
      ],
      "type": "VEC2"
    },
    {
      "bufferView": 0,
      "byteOffset": 7448196,
      "componentType": 5125,
      "count": 353526,
      "max": [
        65531
      ],
      "min": [
        0
      ],
      "type": "SCALAR"
    },
    {
      "bufferView": 2,
      "byteOffset": 10419168,
      "componentType": 5126,
      "count": 7800,
      "max": [
        2.83367919921875,
        2.2910830974578857,
        3.1763629913330078
      ],
      "min": [
        0.24083006381988525,
        0.00083696842193603516,
        0.64904701709747314
      ],
      "type": "VEC3"
    },
    {
      "bufferView": 2,
      "byteOffset": 10512768,
      "componentType": 5126,
      "count": 7800,
      "max": [
        0.99991577863693237,
        0.99581629037857056,
        0.99779564142227173
      ],
      "min": [
        -0.99997854232788086,
        -0.99974489212036133,
        -0.9998130202293396
      ],
      "type": "VEC3"
    },
    {
      "bufferView": 3,
      "byteOffset": 6946112,
      "componentType": 5126,
      "count": 7800,
      "max": [
        0.9991527795791626,
        0.99921578168869019,
        0.99883031845092773,
        1
      ],
      "min": [
        -0.99599725008010864,
        -0.99988639354705811,
        -0.99972158670425415,
        -1
      ],
      "type": "VEC4"
    },
    {
      "bufferView": 1,
      "byteOffset": 3473056,
      "componentType": 5126,
      "count": 7800,
      "max": [
        0.99331802129745483,
        0.99716901779174805
      ],
      "min": [
        0.016411999240517616,
        0.0034829999785870314
      ],
      "type": "VEC2"
    },
    {
      "bufferView": 0,
      "byteOffset": 8862300,
      "componentType": 5125,
      "count": 34425,
      "max": [
        7799
      ],
      "min": [
        0
      ],
      "type": "SCALAR"
    }
  ],
  "asset": {
    "extras": {
      "author": "jerryfisher (https://sketchfab.com/jerryfisher)",
      "license": "CC-BY-4.0 (http://creativecommons.org/licenses/by/4.0/)",
      "source": "https://sketchfab.com/models/10bd72adfbfd4993b6ff672a31b337cc",
      "title": "Head of a Votary from the Temple of Golgoi"
    },
    "generator": "Sketchfab-3.18.7",
    "version": "2.0"
  },
  "bufferViews": [
    {
      "buffer": 0,
      "byteLength": 9000000,
      "byteOffset": 0,
      "name": "floatBufferViews",
      "target": 34963
    },
    {
      "buffer": 0,
      "byteLength": 3535456,
      "byteOffset": 9000000,
      "byteStride": 8,
      "name": "floatBufferViews",
      "target": 34962
    },
    {
      "buffer": 0,
      "byteLength": 10606368,
      "byteOffset": 12535456,
      "byteStride": 12,
      "name": "floatBufferViews",
      "target": 34962
    },
    {
      "buffer": 0,
      "byteLength": 7070912,
      "byteOffset": 23141824,
      "byteStride": 16,
      "name": "floatBufferViews",
      "target": 34962
    }
  ],
  "buffers": [
    {
      "byteLength": 30212736,
      "uri": "scene.bin"
    }
  ],
  "images": [
    {
      "uri": "textures/material_0_baseColor.jpeg"
    },
    {
      "uri": "textures/material_1_baseColor.jpeg"
    }
  ],
  "materials": [
    {
      "doubleSided": true,
      "emissiveFactor": [
        0,
        0,
        0
      ],
      "name": "material_0",
      "pbrMetallicRoughness": {
        "baseColorFactor": [
          1,
          1,
          1,
          1
        ],
        "baseColorTexture": {
          "index": 0,
          "texCoord": 0
        },
        "metallicFactor": 0,
        "roughnessFactor": 0.59999999999999998
      }
    },
    {
      "doubleSided": true,
      "emissiveFactor": [
        0,
        0,
        0
      ],
      "name": "material_1",
      "pbrMetallicRoughness": {
        "baseColorFactor": [
          1,
          1,
          1,
          1
        ],
        "baseColorTexture": {
          "index": 1,
          "texCoord": 0
        },
        "metallicFactor": 0,
        "roughnessFactor": 0.59999999999999998
      }
    }
  ],
  "meshes": [
    {
      "primitives": [
        {
          "attributes": {
            "NORMAL": 1,
            "POSITION": 0,
            "TANGENT": 2,
            "TEXCOORD_0": 3
          },
          "indices": 4,
          "material": 0,
          "mode": 4
        }
      ]
    },
    {
      "primitives": [
        {
          "attributes": {
            "NORMAL": 6,
            "POSITION": 5,
            "TANGENT": 7,
            "TEXCOORD_0": 8
          },
          "indices": 9,
          "material": 0,
          "mode": 4
        }
      ]
    },
    {
      "primitives": [
        {
          "attributes": {
            "NORMAL": 11,
            "POSITION": 10,
            "TANGENT": 12,
            "TEXCOORD_0": 13
          },
          "indices": 14,
          "material": 0,
          "mode": 4
        }
      ]
    },
    {
      "primitives": [
        {
          "attributes": {
            "NORMAL": 16,
            "POSITION": 15,
            "TANGENT": 17,
            "TEXCOORD_0": 18
          },
          "indices": 19,
          "material": 0,
          "mode": 4
        }
      ]
    },
    {
      "primitives": [
        {
          "attributes": {
            "NORMAL": 21,
            "POSITION": 20,
            "TANGENT": 22,
            "TEXCOORD_0": 23
          },
          "indices": 24,
          "material": 1,
          "mode": 4
        }
      ]
    },
    {
      "primitives": [
        {
          "attributes": {
            "NORMAL": 26,
            "POSITION": 25,
            "TANGENT": 27,
            "TEXCOORD_0": 28
          },
          "indices": 29,
          "material": 1,
          "mode": 4
        }
      ]
    },
    {
      "primitives": [
        {
          "attributes": {
            "NORMAL": 31,
            "POSITION": 30,
            "TANGENT": 32,
            "TEXCOORD_0": 33
          },
          "indices": 34,
          "material": 1,
          "mode": 4
        }
      ]
    },
    {
      "primitives": [
        {
          "attributes": {
            "NORMAL": 36,
            "POSITION": 35,
            "TANGENT": 37,
            "TEXCOORD_0": 38
          },
          "indices": 39,
          "material": 1,
          "mode": 4
        }
      ]
    }
  ],
  "nodes": [
    {
      "children": [
        1
      ],
      "name": "RootNode (gltf orientation matrix)",
      "rotation": [
        -0.70710678118654746,
        -0,
        -0,
        0.70710678118654757
      ]
    },
    {
      "children": [
        2
      ],
      "name": "RootNode (model correction matrix)"
    },
    {
      "children": [
        3,
        4,
        5,
        6,
        7,
        8,
        9,
        10
      ],
      "matrix": [
        1,
        0,
        0,
        0,
        0,
        1,
        0,
        0,
        0,
        0,
        1,
        0,
        -1.5403690338134766,
        -1.3785610198974609,
        -2.328624963760376,
        1
      ],
      "name": "model.obj.cleaner.materialmerger.gles"
    },
    {
      "mesh": 0,
      "name": ""
    },
    {
      "mesh": 1,
      "name": ""
    },
    {
      "mesh": 2,
      "name": ""
    },
    {
      "mesh": 3,
      "name": ""
    },
    {
      "mesh": 4,
      "name": ""
    },
    {
      "mesh": 5,
      "name": ""
    },
    {
      "mesh": 6,
      "name": ""
    },
    {
      "mesh": 7,
      "name": ""
    }
  ],
  "samplers": [
    {
      "magFilter": 9729,
      "minFilter": 9987,
      "wrapS": 10497,
      "wrapT": 10497
    }
  ],
  "scene": 0,
  "scenes": [
    {
      "name": "OSG_Scene",
      "nodes": [
        0
      ]
    }
  ],
  "textures": [
    {
      "sampler": 0,
      "source": 0
    },
    {
      "sampler": 0,
      "source": 1
    }
  ]
}

