{
  "accessors": [
    {
      "bufferView": 2,
      "componentType": 5126,
      "count": 9184,
      "max": [
        17.743330001831055,
        45.905715942382812,
        26.135025024414062
      ],
      "min": [
        -17.743330001831055,
        -0.040133476257324219,
        -26.135025024414062
      ],
      "type": "VEC3"
    },
    {
      "bufferView": 2,
      "byteOffset": 110208,
      "componentType": 5126,
      "count": 9184,
      "max": [
        1,
        1,
        1
      ],
      "min": [
        -1,
        -1,
        -1
      ],
      "type": "VEC3"
    },
    {
      "bufferView": 3,
      "componentType": 5126,
      "count": 9184,
      "max": [
        1,
        1,
        1,
        1
      ],
      "min": [
        -1,
        -1,
        -1,
        -1
      ],
      "type": "VEC4"
    },
    {
      "bufferView": 1,
      "componentType": 5126,
      "count": 9184,
      "max": [
        0.99000000953674316,
        0.9875674843788147
      ],
      "min": [
        0.0099999997764825821,
        0.0099999997764825821
      ],
      "type": "VEC2"
    },
    {
      "bufferView": 0,
      "componentType": 5125,
      "count": 34590,
      "max": [
        9183
      ],
      "min": [
        0
      ],
      "type": "SCALAR"
    },
    {
      "bufferView": 2,
      "byteOffset": 220416,
      "componentType": 5126,
      "count": 81,
      "max": [
        2.5344688892364502,
        30.696857452392578,
        -5.6523256301879883
      ],
      "min": [
        -2.5344700813293457,
        25.627918243408203,
        -13.825550079345703
      ],
      "type": "VEC3"
    },
    {
      "bufferView": 2,
      "byteOffset": 221388,
      "componentType": 5126,
      "count": 81,
      "max": [
        0.99998891353607178,
        0.99998897314071655,
        -0.0030735826585441828
      ],
      "min": [
        -0.99998891353607178,
        -0.99998897314071655,
        -0.77392005920410156
      ],
      "type": "VEC3"
    },
    {
      "bufferView": 3,
      "byteOffset": 146944,
      "componentType": 5126,
      "count": 81,
      "max": [
        0.99993675947189331,
        0.99914467334747314,
        0.34619155526161194,
        1
      ],
      "min": [
        -0.88789868354797363,
        -0.44127455353736877,
        -0.99621975421905518,
        1
      ],
      "type": "VEC4"
    },
    {
      "bufferView": 1,
      "byteOffset": 73472,
      "componentType": 5126,
      "count": 81,
      "max": [
        0.72259074449539185,
        0.42728498578071594
      ],
      "min": [
        0.61907213926315308,
        0.32375490665435791
      ],
      "type": "VEC2"
    },
    {
      "bufferView": 0,
      "byteOffset": 138360,
      "componentType": 5125,
      "count": 384,
      "max": [
        80
      ],
      "min": [
        0
      ],
      "type": "SCALAR"
    }
  ],
  "asset": {
    "extras": {
      "author": "Juan Milanese (https://sketchfab.com/juanmilanese)",
      "license": "CC-BY-4.0 (http://creativecommons.org/licenses/by/4.0/)",
      "source": "https://sketchfab.com/models/a5616928a5264e9ba31d99781e35c4f2",
      "title": "Exterior Wall Lamp"
    },
    "generator": "Sketchfab-3.42.3",
    "version": "2.0"
  },
  "bufferViews": [
    {
      "buffer": 0,
      "byteLength": 139896,
      "byteOffset": 0,
      "name": "floatBufferViews",
      "target": 34963
    },
    {
      "buffer": 0,
      "byteLength": 74120,
      "byteOffset": 139896,
      "byteStride": 8,
      "name": "floatBufferViews",
      "target": 34962
    },
    {
      "buffer": 0,
      "byteLength": 222360,
      "byteOffset": 214016,
      "byteStride": 12,
      "name": "floatBufferViews",
      "target": 34962
    },
    {
      "buffer": 0,
      "byteLength": 148240,
      "byteOffset": 436376,
      "byteStride": 16,
      "name": "floatBufferViews",
      "target": 34962
    }
  ],
  "buffers": [
    {
      "byteLength": 584616,
      "uri": "scene.bin"
    }
  ],
  "images": [
    {
      "uri": "textures/Mat_Lamp_metallicRoughness.png"
    },
    {
      "uri": "textures/Mat_Lamp_normal.png"
    },
    {
      "uri": "textures/Mat_Lamp_baseColor.png"
    }
  ],
  "materials": [
    {
      "doubleSided": true,
      "emissiveFactor": [
        0,
        0,
        0
      ],
      "name": "Mat_Lamp",
      "normalTexture": {
        "index": 1,
        "scale": 1,
        "texCoord": 0
      },
      "occlusionTexture": {
        "index": 0,
        "strength": 1,
        "texCoord": 0
      },
      "pbrMetallicRoughness": {
        "baseColorFactor": [
          1,
          1,
          1,
          1
        ],
        "baseColorTexture": {
          "index": 2,
          "texCoord": 0
        },
        "metallicFactor": 1,
        "metallicRoughnessTexture": {
          "index": 0,
          "texCoord": 0
        },
        "roughnessFactor": 1
      }
    },
    {
      "doubleSided": false,
      "emissiveFactor": [
        1,
        1,
        1
      ],
      "name": "Mat_Looz",
      "pbrMetallicRoughness": {
        "baseColorFactor": [
          0.71585589319999998,
          0.59718815569999995,
          0.39882675979999999,
          1
        ],
        "metallicFactor": 0.75,
        "roughnessFactor": 0.16634908540000001
      }
    }
  ],
  "meshes": [
    {
      "name": "Lampara_Externa_Mat_Lamp_0",
      "primitives": [
        {
          "attributes": {
            "NORMAL": 1,
            "POSITION": 0,
            "TANGENT": 2,
            "TEXCOORD_0": 3
          },
          "indices": 4,
          "material": 0,
          "mode": 4
        }
      ]
    },
    {
      "name": "Lampara_Externa_Mat_Looz_0",
      "primitives": [
        {
          "attributes": {
            "NORMAL": 6,
            "POSITION": 5,
            "TANGENT": 7,
            "TEXCOORD_0": 8
          },
          "indices": 9,
          "material": 1,
          "mode": 4
        }
      ]
    }
  ],
  "nodes": [
    {
      "children": [
        1
      ],
      "name": "RootNode (gltf orientation matrix)",
      "rotation": [
        -0.70710678118654746,
        -0,
        -0,
        0.70710678118654757
      ]
    },
    {
      "children": [
        2
      ],
      "name": "RootNode (model correction matrix)"
    },
    {
      "children": [
        3
      ],
      "matrix": [
        1,
        0,
        0,
        0,
        0,
        0,
        1,
        0,
        0,
        -1,
        0,
        0,
        0,
        0,
        0,
        1
      ],
      "name": "f353c30423e4428bb2bd8cddd6cde851.fbx"
    },
    {
      "children": [
        4
      ],
      "name": "RootNode"
    },
    {
      "children": [
        5
      ],
      "matrix": [
        1,
        0,
        0,
        0,
        0,
        2.2204460492503131e-16,
        -1,
        0,
        0,
        1,
        2.2204460492503131e-16,
        0,
        0,
        0,
        0,
        1
      ],
      "name": "Lampara_Externa"
    },
    {
      "children": [
        6,
        7
      ],
      "matrix": [
        1,
        0,
        -0,
        0,
        0,
        1,
        0,
        0,
        0,
        0,
        1,
        0,
        1.1982172587465811e-08,
        -0.056831687688827515,
        3.6293561458587646,
        1
      ],
      "name": ""
    },
    {
      "mesh": 0,
      "name": "Lampara_Externa_Mat_Lamp_0"
    },
    {
      "mesh": 1,
      "name": "Lampara_Externa_Mat_Looz_0"
    }
  ],
  "samplers": [
    {
      "magFilter": 9729,
      "minFilter": 9987,
      "wrapS": 10497,
      "wrapT": 10497
    }
  ],
  "scene": 0,
  "scenes": [
    {
      "name": "OSG_Scene",
      "nodes": [
        0
      ]
    }
  ],
  "textures": [
    {
      "sampler": 0,
      "source": 0
    },
    {
      "sampler": 0,
      "source": 1
    },
    {
      "sampler": 0,
      "source": 2
    }
  ]
}

