{
  "accessors": [
    {
      "bufferView": 1,
      "componentType": 5126,
      "count": 65532,
      "max": [
        74.771484375,
        82.988533020019531,
        32.740081787109375
      ],
      "min": [
        -45.690311431884766,
        -101.64059448242188,
        -46.852157592773438
      ],
      "type": "VEC3"
    },
    {
      "bufferView": 1,
      "byteOffset": 786384,
      "componentType": 5126,
      "count": 65532,
      "max": [
        0.9999958872795105,
        0.99997228384017944,
        0.99986511468887329
      ],
      "min": [
        -0.99999505281448364,
        -0.99999445676803589,
        -0.99999517202377319
      ],
      "type": "VEC3"
    },
    {
      "bufferView": 0,
      "componentType": 5125,
      "count": 338208,
      "max": [
        65531
      ],
      "min": [
        0
      ],
      "type": "SCALAR"
    },
    {
      "bufferView": 1,
      "byteOffset": 1572768,
      "componentType": 5126,
      "count": 65532,
      "max": [
        77.033180236816406,
        82.861396789550781,
        41.626094818115234
      ],
      "min": [
        -55.200576782226562,
        -101.56315612792969,
        -45.079280853271484
      ],
      "type": "VEC3"
    },
    {
      "bufferView": 1,
      "byteOffset": 2359152,
      "componentType": 5126,
      "count": 65532,
      "max": [
        0.99998164176940918,
        0.9999992847442627,
        0.999988853931427
      ],
      "min": [
        -0.99977374076843262,
        -0.9999963641166687,
        -0.99997293949127197
      ],
      "type": "VEC3"
    },
    {
      "bufferView": 0,
      "byteOffset": 1352832,
      "componentType": 5125,
      "count": 316518,
      "max": [
        65531
      ],
      "min": [
        0
      ],
      "type": "SCALAR"
    },
    {
      "bufferView": 1,
      "byteOffset": 3145536,
      "componentType": 5126,
      "count": 65532,
      "max": [
        77.551788330078125,
        63.858386993408203,
        38.944599151611328
      ],
      "min": [
        -59.690811157226562,
        -101.61772155761719,
        -64.433189392089844
      ],
      "type": "VEC3"
    },
    {
      "bufferView": 1,
      "byteOffset": 3931920,
      "componentType": 5126,
      "count": 65532,
      "max": [
        0.99999862909317017,
        0.99993139505386353,
        0.99999380111694336
      ],
      "min": [
        -0.99999606609344482,
        -0.99999618530273438,
        -0.99995660781860352
      ],
      "type": "VEC3"
    },
    {
      "bufferView": 0,
      "byteOffset": 2618904,
      "componentType": 5125,
      "count": 319875,
      "max": [
        65531
      ],
      "min": [
        0
      ],
      "type": "SCALAR"
    },
    {
      "bufferView": 1,
      "byteOffset": 4718304,
      "componentType": 5126,
      "count": 65532,
      "max": [
        79.937347412109375,
        35.389179229736328,
        59.370616912841797
      ],
      "min": [
        -58.498512268066406,
        -101.74352264404297,
        -54.764263153076172
      ],
      "type": "VEC3"
    },
    {
      "bufferView": 1,
      "byteOffset": 5504688,
      "componentType": 5126,
      "count": 65532,
      "max": [
        0.99999737739562988,
        0.99997043609619141,
        0.99996268749237061
      ],
      "min": [
        -0.99997204542160034,
        -0.99999982118606567,
        -0.99994301795959473
      ],
      "type": "VEC3"
    },
    {
      "bufferView": 0,
      "byteOffset": 3898404,
      "componentType": 5125,
      "count": 315789,
      "max": [
        65531
      ],
      "min": [
        0
      ],
      "type": "SCALAR"
    },
    {
      "bufferView": 1,
      "byteOffset": 6291072,
      "componentType": 5126,
      "count": 65532,
      "max": [
        77.935401916503906,
        33.900779724121094,
        38.092140197753906
      ],
      "min": [
        -60.064720153808594,
        -101.32212066650391,
        -64.445693969726562
      ],
      "type": "VEC3"
    },
    {
      "bufferView": 1,
      "byteOffset": 7077456,
      "componentType": 5126,
      "count": 65532,
      "max": [
        0.99999749660491943,
        0.99999153614044189,
        0.99999839067459106
      ],
      "min": [
        -0.99994558095932007,
        -0.99980390071868896,
        -0.99999517202377319
      ],
      "type": "VEC3"
    },
    {
      "bufferView": 0,
      "byteOffset": 5161560,
      "componentType": 5125,
      "count": 335154,
      "max": [
        65531
      ],
      "min": [
        0
      ],
      "type": "SCALAR"
    },
    {
      "bufferView": 1,
      "byteOffset": 7863840,
      "componentType": 5126,
      "count": 65532,
      "max": [
        68.230857849121094,
        17.493755340576172,
        52.713325500488281
      ],
      "min": [
        -60.034248352050781,
        -101.64059448242188,
        -64.445693969726562
      ],
      "type": "VEC3"
    },
    {
      "bufferView": 1,
      "byteOffset": 8650224,
      "componentType": 5126,
      "count": 65532,
      "max": [
        0.99999499320983887,
        0.99998414516448975,
        0.99999797344207764
      ],
      "min": [
        -0.99995243549346924,
        -0.99997556209564209,
        -0.99995577335357666
      ],
      "type": "VEC3"
    },
    {
      "bufferView": 0,
      "byteOffset": 6502176,
      "componentType": 5125,
      "count": 319971,
      "max": [
        65531
      ],
      "min": [
        0
      ],
      "type": "SCALAR"
    },
    {
      "bufferView": 1,
      "byteOffset": 9436608,
      "componentType": 5126,
      "count": 65532,
      "max": [
        79.953651428222656,
        15.353157043457031,
        48.669998168945312
      ],
      "min": [
        -59.778636932373047,
        -101.68156433105469,
        -64.375213623046875
      ],
      "type": "VEC3"
    },
    {
      "bufferView": 1,
      "byteOffset": 10222992,
      "componentType": 5126,
      "count": 65532,
      "max": [
        0.99994492530822754,
        0.99996131658554077,
        0.99999290704727173
      ],
      "min": [
        -0.99997627735137939,
        -0.99996823072433472,
        -0.99997270107269287
      ],
      "type": "VEC3"
    },
    {
      "bufferView": 0,
      "byteOffset": 7782060,
      "componentType": 5125,
      "count": 265251,
      "max": [
        65531
      ],
      "min": [
        0
      ],
      "type": "SCALAR"
    },
    {
      "bufferView": 1,
      "byteOffset": 11009376,
      "componentType": 5126,
      "count": 65532,
      "max": [
        77.551254272460938,
        -10.110258102416992,
        59.290523529052734
      ],
      "min": [
        -55.513782501220703,
        -101.72519683837891,
        -62.194038391113281
      ],
      "type": "VEC3"
    },
    {
      "bufferView": 1,
      "byteOffset": 11795760,
      "componentType": 5126,
      "count": 65532,
      "max": [
        0.9999547004699707,
        0.99997967481613159,
        0.99998176097869873
      ],
      "min": [
        -0.99998182058334351,
        -0.99999922513961792,
        -0.99998241662979126
      ],
      "type": "VEC3"
    },
    {
      "bufferView": 0,
      "byteOffset": 8843064,
      "componentType": 5125,
      "count": 330873,
      "max": [
        65531
      ],
      "min": [
        0
      ],
      "type": "SCALAR"
    },
    {
      "bufferView": 1,
      "byteOffset": 12582144,
      "componentType": 5126,
      "count": 65532,
      "max": [
        78.552749633789062,
        -11.41795539855957,
        59.318496704101562
      ],
      "min": [
        -57.438236236572266,
        -101.59844970703125,
        -62.056446075439453
      ],
      "type": "VEC3"
    },
    {
      "bufferView": 1,
      "byteOffset": 13368528,
      "componentType": 5126,
      "count": 65532,
      "max": [
        0.99997055530548096,
        0.99995625019073486,
        0.9999958872795105
      ],
      "min": [
        -0.99998199939727783,
        -0.99993139505386353,
        -0.99998241662979126
      ],
      "type": "VEC3"
    },
    {
      "bufferView": 0,
      "byteOffset": 10166556,
      "componentType": 5125,
      "count": 305679,
      "max": [
        65531
      ],
      "min": [
        0
      ],
      "type": "SCALAR"
    },
    {
      "bufferView": 1,
      "byteOffset": 14154912,
      "componentType": 5126,
      "count": 51263,
      "max": [
        79.625923156738281,
        31.52397346496582,
        57.50958251953125
      ],
      "min": [
        -58.492790222167969,
        -101.72618865966797,
        -62.178199768066406
      ],
      "type": "VEC3"
    },
    {
      "bufferView": 1,
      "byteOffset": 14770068,
      "componentType": 5126,
      "count": 51263,
      "max": [
        0.99996012449264526,
        0.99998056888580322,
        0.99998718500137329
      ],
      "min": [
        -0.99988251924514771,
        -0.99999904632568359,
        -0.999977707862854
      ],
      "type": "VEC3"
    },
    {
      "bufferView": 0,
      "byteOffset": 11389272,
      "componentType": 5125,
      "count": 151584,
      "max": [
        51262
      ],
      "min": [
        0
      ],
      "type": "SCALAR"
    }
  ],
  "asset": {
    "extras": {
      "author": "Artec 3D (https://sketchfab.com/artec3d)",
      "license": "CC-BY-4.0 (http://creativecommons.org/licenses/by/4.0/)",
      "source": "https://sketchfab.com/models/93d65f56fdd34311ad55112f90ba4a82",
      "title": "Dragon with pearl"
    },
    "generator": "Sketchfab-3.18.5",
    "version": "2.0"
  },
  "bufferViews": [
    {
      "buffer": 0,
      "byteLength": 11995608,
      "byteOffset": 0,
      "name": "floatBufferViews",
      "target": 34963
    },
    {
      "buffer": 0,
      "byteLength": 15385224,
      "byteOffset": 11995608,
      "byteStride": 12,
      "name": "floatBufferViews",
      "target": 34962
    }
  ],
  "buffers": [
    {
      "byteLength": 27380832,
      "uri": "scene.bin"
    }
  ],
  "materials": [
    {
      "doubleSided": true,
      "name": "Scene_-_Root",
      "pbrMetallicRoughness": {
        "baseColorFactor": [
          0.51814746126,
          0.51302094120000008,
          0.51302094120000008,
          1
        ],
        "metallicFactor": 0,
        "roughnessFactor": 0.59999999999999998
      }
    }
  ],
  "meshes": [
    {
      "primitives": [
        {
          "attributes": {
            "NORMAL": 1,
            "POSITION": 0
          },
          "indices": 2,
          "material": 0,
          "mode": 4
        }
      ]
    },
    {
      "primitives": [
        {
          "attributes": {
            "NORMAL": 4,
            "POSITION": 3
          },
          "indices": 5,
          "material": 0,
          "mode": 4
        }
      ]
    },
    {
      "primitives": [
        {
          "attributes": {
            "NORMAL": 7,
            "POSITION": 6
          },
          "indices": 8,
          "material": 0,
          "mode": 4
        }
      ]
    },
    {
      "primitives": [
        {
          "attributes": {
            "NORMAL": 10,
            "POSITION": 9
          },
          "indices": 11,
          "material": 0,
          "mode": 4
        }
      ]
    },
    {
      "primitives": [
        {
          "attributes": {
            "NORMAL": 13,
            "POSITION": 12
          },
          "indices": 14,
          "material": 0,
          "mode": 4
        }
      ]
    },
    {
      "primitives": [
        {
          "attributes": {
            "NORMAL": 16,
            "POSITION": 15
          },
          "indices": 17,
          "material": 0,
          "mode": 4
        }
      ]
    },
    {
      "primitives": [
        {
          "attributes": {
            "NORMAL": 19,
            "POSITION": 18
          },
          "indices": 20,
          "material": 0,
          "mode": 4
        }
      ]
    },
    {
      "primitives": [
        {
          "attributes": {
            "NORMAL": 22,
            "POSITION": 21
          },
          "indices": 23,
          "material": 0,
          "mode": 4
        }
      ]
    },
    {
      "primitives": [
        {
          "attributes": {
            "NORMAL": 25,
            "POSITION": 24
          },
          "indices": 26,
          "material": 0,
          "mode": 4
        }
      ]
    },
    {
      "primitives": [
        {
          "attributes": {
            "NORMAL": 28,
            "POSITION": 27
          },
          "indices": 29,
          "material": 0,
          "mode": 4
        }
      ]
    }
  ],
  "nodes": [
    {
      "children": [
        1
      ],
      "name": "RootNode (gltf orientation matrix)",
      "rotation": [
        -0.70710678118654746,
        -0,
        -0,
        0.70710678118654757
      ]
    },
    {
      "children": [
        2
      ],
      "matrix": [
        1,
        0,
        0,
        0,
        0,
        0.19089251756668091,
        0.98161095380783081,
        0,
        0,
        -0.98161095380783081,
        0.19089251756668091,
        0,
        0,
        -24.634096145629883,
        17.607933044433594,
        1
      ],
      "name": "RootNode (model correction matrix)"
    },
    {
      "children": [
        3,
        4,
        5,
        6,
        7,
        8,
        9,
        10,
        11,
        12
      ],
      "name": "dragon_with_pearl.stl.cleaner.gles"
    },
    {
      "mesh": 0,
      "name": ""
    },
    {
      "mesh": 1,
      "name": ""
    },
    {
      "mesh": 2,
      "name": ""
    },
    {
      "mesh": 3,
      "name": ""
    },
    {
      "mesh": 4,
      "name": ""
    },
    {
      "mesh": 5,
      "name": ""
    },
    {
      "mesh": 6,
      "name": ""
    },
    {
      "mesh": 7,
      "name": ""
    },
    {
      "mesh": 8,
      "name": ""
    },
    {
      "mesh": 9,
      "name": ""
    }
  ],
  "scene": 0,
  "scenes": [
    {
      "name": "OSG_Scene",
      "nodes": [
        0
      ]
    }
  ]
}

