{
  "accessors": [
    {
      "bufferView": 2,
      "componentType": 5126,
      "count": 65532,
      "max": [
        4.0655341148376465,
        3.3099379539489746,
        2.6018009185791016
      ],
      "min": [
        0.14117693901062012,
        0.11227226257324219,
        0.60963207483291626
      ],
      "type": "VEC3"
    },
    {
      "bufferView": 2,
      "byteOffset": 786384,
      "componentType": 5126,
      "count": 65532,
      "max": [
        0.9999997615814209,
        0.99996209144592285,
        0.99975210428237915
      ],
      "min": [
        -0.9999585747718811,
        -0.99995577335357666,
        -0.99999785423278809
      ],
      "type": "VEC3"
    },
    {
      "bufferView": 3,
      "componentType": 5126,
      "count": 65532,
      "max": [
        0.99889963865280151,
        0.99998289346694946,
        0.99999243021011353,
        1
      ],
      "min": [
        -0.99980372190475464,
        -0.9999815821647644,
        -0.9999767541885376,
        -1
      ],
      "type": "VEC4"
    },
    {
      "bufferView": 1,
      "componentType": 5126,
      "count": 65532,
      "max": [
        0.99678802490234375,
        0.99956297874450684
      ],
      "min": [
        0.0015750000020489097,
        0.0045429999008774757
      ],
      "type": "VEC2"
    },
    {
      "bufferView": 0,
      "componentType": 5125,
      "count": 356271,
      "max": [
        65531
      ],
      "min": [
        0
      ],
      "type": "SCALAR"
    },
    {
      "bufferView": 2,
      "byteOffset": 1572768,
      "componentType": 5126,
      "count": 65532,
      "max": [
        3.5465738773345947,
        2.6576550006866455,
        2.3386130332946777
      ],
      "min": [
        0,
        0,
        1.3521000146865845
      ],
      "type": "VEC3"
    },
    {
      "bufferView": 2,
      "byteOffset": 2359152,
      "componentType": 5126,
      "count": 65532,
      "max": [
        0.99995023012161255,
        0.99998754262924194,
        0.99974966049194336
      ],
      "min": [
        -0.99998736381530762,
        -0.99994409084320068,
        -0.99999821186065674
      ],
      "type": "VEC3"
    },
    {
      "bufferView": 3,
      "byteOffset": 1048512,
      "componentType": 5126,
      "count": 65532,
      "max": [
        0.99999380111694336,
        0.99999487400054932,
        0.99999773502349854,
        1
      ],
      "min": [
        -0.99984210729598999,
        -0.99998193979263306,
        -0.99996089935302734,
        -1
      ],
      "type": "VEC4"
    },
    {
      "bufferView": 1,
      "byteOffset": 524256,
      "componentType": 5126,
      "count": 65532,
      "max": [
        0.99433302879333496,
        1.0000829696655273
      ],
      "min": [
        0.0081310002133250237,
        0.0037400000728666782
      ],
      "type": "VEC2"
    },
    {
      "bufferView": 0,
      "byteOffset": 1425084,
      "componentType": 5125,
      "count": 331059,
      "max": [
        65531
      ],
      "min": [
        0
      ],
      "type": "SCALAR"
    },
    {
      "bufferView": 2,
      "byteOffset": 3145536,
      "componentType": 5126,
      "count": 65532,
      "max": [
        3.3048520088195801,
        2.0990409851074219,
        1.8662850856781006
      ],
      "min": [
        0.34785795211791992,
        0.26129388809204102,
        0.1042250394821167
      ],
      "type": "VEC3"
    },
    {
      "bufferView": 2,
      "byteOffset": 3931920,
      "componentType": 5126,
      "count": 65532,
      "max": [
        0.99996310472488403,
        0.9999890923500061,
        0.99920523166656494
      ],
      "min": [
        -0.99985802173614502,
        -0.99999874830245972,
        -0.99999350309371948
      ],
      "type": "VEC3"
    },
    {
      "bufferView": 3,
      "byteOffset": 2097024,
      "componentType": 5126,
      "count": 65532,
      "max": [
        0.99999672174453735,
        0.99997371435165405,
        0.99996119737625122,
        1
      ],
      "min": [
        -0.9999699592590332,
        -0.9999663233757019,
        -0.99934077262878418,
        -1
      ],
      "type": "VEC4"
    },
    {
      "bufferView": 1,
      "byteOffset": 1048512,
      "componentType": 5126,
      "count": 65532,
      "max": [
        0.9650999903678894,
        0.99932098388671875
      ],
      "min": [
        0.007592999842017889,
        0.0039539998397231102
      ],
      "type": "VEC2"
    },
    {
      "bufferView": 0,
      "byteOffset": 2749320,
      "componentType": 5125,
      "count": 342111,
      "max": [
        65531
      ],
      "min": [
        0
      ],
      "type": "SCALAR"
    },
    {
      "bufferView": 2,
      "byteOffset": 4718304,
      "componentType": 5126,
      "count": 47745,
      "max": [
        3.4053909778594971,
        2.3716249465942383,
        2.2333121299743652
      ],
      "min": [
        0.44262194633483887,
        0.81829309463500977,
        0
      ],
      "type": "VEC3"
    },
    {
      "bufferView": 2,
      "byteOffset": 5291244,
      "componentType": 5126,
      "count": 47745,
      "max": [
        0.99979901313781738,
        0.99994766712188721,
        0.99999946355819702
      ],
      "min": [
        -0.99988490343093872,
        -0.99998748302459717,
        -0.99994409084320068
      ],
      "type": "VEC3"
    },
    {
      "bufferView": 3,
      "byteOffset": 3145536,
      "componentType": 5126,
      "count": 47745,
      "max": [
        0.99999630451202393,
        0.99999582767486572,
        0.99914431571960449,
        1
      ],
      "min": [
        -0.9999699592590332,
        -0.99978196620941162,
        -0.99993044137954712,
        -1
      ],
      "type": "VEC4"
    },
    {
      "bufferView": 1,
      "byteOffset": 1572768,
      "componentType": 5126,
      "count": 47745,
      "max": [
        0.99511301517486572,
        0.9995959997177124
      ],
      "min": [
        0.0037130001001060009,
        0.0033599999733269215
      ],
      "type": "VEC2"
    },
    {
      "bufferView": 0,
      "byteOffset": 4117764,
      "componentType": 5125,
      "count": 243462,
      "max": [
        47744
      ],
      "min": [
        0
      ],
      "type": "SCALAR"
    }
  ],
  "asset": {
    "extras": {
      "author": "nate_siddle (https://sketchfab.com/nate_sid)",
      "license": "CC-BY-4.0 (http://creativecommons.org/licenses/by/4.0/)",
      "source": "https://sketchfab.com/models/eac903310c574fa8aa94d4ebade70b1b",
      "title": "Ox Statue (Kek Lok Si Buddhist Temple, Penang)"
    },
    "generator": "Sketchfab-3.18.5",
    "version": "2.0"
  },
  "bufferViews": [
    {
      "buffer": 0,
      "byteLength": 5091612,
      "byteOffset": 0,
      "name": "floatBufferViews",
      "target": 34963
    },
    {
      "buffer": 0,
      "byteLength": 1954728,
      "byteOffset": 5091612,
      "byteStride": 8,
      "name": "floatBufferViews",
      "target": 34962
    },
    {
      "buffer": 0,
      "byteLength": 5864184,
      "byteOffset": 7046340,
      "byteStride": 12,
      "name": "floatBufferViews",
      "target": 34962
    },
    {
      "buffer": 0,
      "byteLength": 3909456,
      "byteOffset": 12910524,
      "byteStride": 16,
      "name": "floatBufferViews",
      "target": 34962
    }
  ],
  "buffers": [
    {
      "byteLength": 16819980,
      "uri": "scene.bin"
    }
  ],
  "images": [
    {
      "uri": "textures/oxen_500k_baseColor.jpg"
    }
  ],
  "materials": [
    {
      "doubleSided": true,
      "emissiveFactor": [
        0,
        0,
        0
      ],
      "name": "oxen_500k",
      "pbrMetallicRoughness": {
        "baseColorFactor": [
          1,
          1,
          1,
          1
        ],
        "baseColorTexture": {
          "index": 0,
          "texCoord": 0
        },
        "metallicFactor": 0,
        "roughnessFactor": 0.59999999999999998
      }
    }
  ],
  "meshes": [
    {
      "primitives": [
        {
          "attributes": {
            "NORMAL": 1,
            "POSITION": 0,
            "TANGENT": 2,
            "TEXCOORD_0": 3
          },
          "indices": 4,
          "material": 0,
          "mode": 4
        }
      ]
    },
    {
      "primitives": [
        {
          "attributes": {
            "NORMAL": 6,
            "POSITION": 5,
            "TANGENT": 7,
            "TEXCOORD_0": 8
          },
          "indices": 9,
          "material": 0,
          "mode": 4
        }
      ]
    },
    {
      "primitives": [
        {
          "attributes": {
            "NORMAL": 11,
            "POSITION": 10,
            "TANGENT": 12,
            "TEXCOORD_0": 13
          },
          "indices": 14,
          "material": 0,
          "mode": 4
        }
      ]
    },
    {
      "primitives": [
        {
          "attributes": {
            "NORMAL": 16,
            "POSITION": 15,
            "TANGENT": 17,
            "TEXCOORD_0": 18
          },
          "indices": 19,
          "material": 0,
          "mode": 4
        }
      ]
    }
  ],
  "nodes": [
    {
      "children": [
        1
      ],
      "name": "RootNode (gltf orientation matrix)",
      "rotation": [
        -0.70710678118654746,
        -0,
        -0,
        0.70710678118654757
      ]
    },
    {
      "children": [
        2
      ],
      "matrix": [
        0.94946479797363281,
        0.30779182910919189,
        0.061488412320613861,
        0,
        0.30497720837593079,
        -0.95098841190338135,
        0.051088053733110428,
        0,
        0.07419925183057785,
        -0.02975374273955822,
        -0.99679946899414062,
        0,
        1.3591278791427612,
        -8.8491334915161133,
        0.92573094367980957,
        1
      ],
      "name": "RootNode (model correction matrix)"
    },
    {
      "children": [
        3,
        4,
        5,
        6
      ],
      "matrix": [
        1,
        0,
        0,
        0,
        0,
        1,
        0,
        0,
        0,
        0,
        1,
        0,
        -3.1447529792785645,
        -6.4158320426940918,
        -1.294558048248291,
        1
      ],
      "name": "oxen_500k.obj.cleaner.gles"
    },
    {
      "mesh": 0,
      "name": ""
    },
    {
      "mesh": 1,
      "name": ""
    },
    {
      "mesh": 2,
      "name": ""
    },
    {
      "mesh": 3,
      "name": ""
    }
  ],
  "samplers": [
    {
      "magFilter": 9729,
      "minFilter": 9987,
      "wrapS": 10497,
      "wrapT": 10497
    }
  ],
  "scene": 0,
  "scenes": [
    {
      "name": "OSG_Scene",
      "nodes": [
        0
      ]
    }
  ],
  "textures": [
    {
      "sampler": 0,
      "source": 0
    }
  ]
}

