{
  "accessors": [
    {
      "bufferView": 2,
      "componentType": 5126,
      "count": 65532,
      "max": [
        0.35245099663734436,
        9.6280040740966797,
        0.74195897579193115
      ],
      "min": [
        -1.1242179870605469,
        7.6918168067932129,
        -1.5305329561233521
      ],
      "type": "VEC3"
    },
    {
      "bufferView": 2,
      "byteOffset": 786384,
      "componentType": 5126,
      "count": 65532,
      "max": [
        0.99999362230300903,
        0.9999348521232605,
        0.99998378753662109
      ],
      "min": [
        -0.9999879002571106,
        -0.99708265066146851,
        -0.99997854232788086
      ],
      "type": "VEC3"
    },
    {
      "bufferView": 3,
      "componentType": 5126,
      "count": 65532,
      "max": [
        0.99999815225601196,
        0.99999433755874634,
        0.99998742341995239,
        1
      ],
      "min": [
        -0.99999362230300903,
        -0.96065700054168701,
        -0.99982321262359619,
        -1
      ],
      "type": "VEC4"
    },
    {
      "bufferView": 1,
      "componentType": 5126,
      "count": 65532,
      "max": [
        0.98023498058319092,
        0.99227100610733032
      ],
      "min": [
        0.088720999658107758,
        0.0036460000555962324
      ],
      "type": "VEC2"
    },
    {
      "bufferView": 0,
      "componentType": 5125,
      "count": 349962,
      "max": [
        65531
      ],
      "min": [
        0
      ],
      "type": "SCALAR"
    },
    {
      "bufferView": 2,
      "byteOffset": 1572768,
      "componentType": 5126,
      "count": 65532,
      "max": [
        0.52331799268722534,
        9.5235118865966797,
        1.3070399761199951
      ],
      "min": [
        -1.1650710105895996,
        7.1962528228759766,
        -1.4502869844436646
      ],
      "type": "VEC3"
    },
    {
      "bufferView": 2,
      "byteOffset": 2359152,
      "componentType": 5126,
      "count": 65532,
      "max": [
        0.99999910593032837,
        0.99965000152587891,
        0.99945878982543945
      ],
      "min": [
        -0.99999773502349854,
        -0.99430358409881592,
        -0.99971199035644531
      ],
      "type": "VEC3"
    },
    {
      "bufferView": 3,
      "byteOffset": 1048512,
      "componentType": 5126,
      "count": 65532,
      "max": [
        0.9999992847442627,
        0.99173450469970703,
        0.98373943567276001,
        1
      ],
      "min": [
        -0.99999070167541504,
        -0.97730147838592529,
        -0.97973966598510742,
        -1
      ],
      "type": "VEC4"
    },
    {
      "bufferView": 1,
      "byteOffset": 524256,
      "componentType": 5126,
      "count": 65532,
      "max": [
        0.96307897567749023,
        0.99749100208282471
      ],
      "min": [
        0.0035310001112520695,
        0.006407999899238348
      ],
      "type": "VEC2"
    },
    {
      "bufferView": 0,
      "byteOffset": 1399848,
      "componentType": 5125,
      "count": 318696,
      "max": [
        65531
      ],
      "min": [
        0
      ],
      "type": "SCALAR"
    },
    {
      "bufferView": 2,
      "byteOffset": 3145536,
      "componentType": 5126,
      "count": 65532,
      "max": [
        0.61195999383926392,
        9.1231918334960938,
        1.009552001953125
      ],
      "min": [
        -1.1933480501174927,
        6.9220290184020996,
        -1.2898370027542114
      ],
      "type": "VEC3"
    },
    {
      "bufferView": 2,
      "byteOffset": 3931920,
      "componentType": 5126,
      "count": 65532,
      "max": [
        0.9999890923500061,
        0.99954724311828613,
        0.99972164630889893
      ],
      "min": [
        -0.99996185302734375,
        -0.99946576356887817,
        -0.99994564056396484
      ],
      "type": "VEC3"
    },
    {
      "bufferView": 3,
      "byteOffset": 2097024,
      "componentType": 5126,
      "count": 65532,
      "max": [
        0.99998706579208374,
        0.9946826696395874,
        0.99774551391601562,
        1
      ],
      "min": [
        -0.99999576807022095,
        -0.99991190433502197,
        -0.99998420476913452,
        -1
      ],
      "type": "VEC4"
    },
    {
      "bufferView": 1,
      "byteOffset": 1048512,
      "componentType": 5126,
      "count": 65532,
      "max": [
        0.99495202302932739,
        0.99588000774383545
      ],
      "min": [
        0.0050860000774264336,
        0.0041609997861087322
      ],
      "type": "VEC2"
    },
    {
      "bufferView": 0,
      "byteOffset": 2674632,
      "componentType": 5125,
      "count": 322023,
      "max": [
        65531
      ],
      "min": [
        0
      ],
      "type": "SCALAR"
    },
    {
      "bufferView": 2,
      "byteOffset": 4718304,
      "componentType": 5126,
      "count": 65532,
      "max": [
        0.54117000102996826,
        8.9364261627197266,
        1.2941950559616089
      ],
      "min": [
        -1.1488610506057739,
        6.8717641830444336,
        -1.1634340286254883
      ],
      "type": "VEC3"
    },
    {
      "bufferView": 2,
      "byteOffset": 5504688,
      "componentType": 5126,
      "count": 65532,
      "max": [
        0.99999135732650757,
        0.99987435340881348,
        0.99967533349990845
      ],
      "min": [
        -0.9999924898147583,
        -0.99988090991973877,
        -0.99648874998092651
      ],
      "type": "VEC3"
    },
    {
      "bufferView": 3,
      "byteOffset": 3145536,
      "componentType": 5126,
      "count": 65532,
      "max": [
        0.99996596574783325,
        0.99582833051681519,
        0.99036341905593872,
        1
      ],
      "min": [
        -0.99999934434890747,
        -0.99979716539382935,
        -0.99987351894378662,
        -1
      ],
      "type": "VEC4"
    },
    {
      "bufferView": 1,
      "byteOffset": 1572768,
      "componentType": 5126,
      "count": 65532,
      "max": [
        0.98328202962875366,
        0.99396097660064697
      ],
      "min": [
        0.0033350000157952309,
        0.0046769999898970127
      ],
      "type": "VEC2"
    },
    {
      "bufferView": 0,
      "byteOffset": 3962724,
      "componentType": 5125,
      "count": 317040,
      "max": [
        65531
      ],
      "min": [
        0
      ],
      "type": "SCALAR"
    },
    {
      "bufferView": 2,
      "byteOffset": 6291072,
      "componentType": 5126,
      "count": 65532,
      "max": [
        0.44945600628852844,
        8.8059511184692383,
        1.257254958152771
      ],
      "min": [
        -1.1231080293655396,
        6.8897318840026855,
        -1.0830800533294678
      ],
      "type": "VEC3"
    },
    {
      "bufferView": 2,
      "byteOffset": 7077456,
      "componentType": 5126,
      "count": 65532,
      "max": [
        0.99999749660491943,
        0.99999076128005981,
        0.99928790330886841
      ],
      "min": [
        -0.99990010261535645,
        -0.99995625019073486,
        -0.99944210052490234
      ],
      "type": "VEC3"
    },
    {
      "bufferView": 3,
      "byteOffset": 4194048,
      "componentType": 5126,
      "count": 65532,
      "max": [
        0.99999374151229858,
        0.96699905395507812,
        0.99941903352737427,
        1
      ],
      "min": [
        -0.99918985366821289,
        -0.99990099668502808,
        -0.99919432401657104,
        -1
      ],
      "type": "VEC4"
    },
    {
      "bufferView": 1,
      "byteOffset": 2097024,
      "componentType": 5126,
      "count": 65532,
      "max": [
        0.98235398530960083,
        0.99124300479888916
      ],
      "min": [
        0.0044749998487532139,
        0.011726000346243382
      ],
      "type": "VEC2"
    },
    {
      "bufferView": 0,
      "byteOffset": 5230884,
      "componentType": 5125,
      "count": 320340,
      "max": [
        65531
      ],
      "min": [
        0
      ],
      "type": "SCALAR"
    },
    {
      "bufferView": 2,
      "byteOffset": 7863840,
      "componentType": 5126,
      "count": 65532,
      "max": [
        0.53765100240707397,
        8.7482843399047852,
        1.0719799995422363
      ],
      "min": [
        -1.2773330211639404,
        6.9470419883728027,
        -1.0836449861526489
      ],
      "type": "VEC3"
    },
    {
      "bufferView": 2,
      "byteOffset": 8650224,
      "componentType": 5126,
      "count": 65532,
      "max": [
        0.99997764825820923,
        0.99999076128005981,
        0.99978113174438477
      ],
      "min": [
        -0.99997162818908691,
        -0.99988090991973877,
        -0.99984562397003174
      ],
      "type": "VEC3"
    },
    {
      "bufferView": 3,
      "byteOffset": 5242560,
      "componentType": 5126,
      "count": 65532,
      "max": [
        0.99998724460601807,
        0.9875914454460144,
        0.9971853494644165,
        1
      ],
      "min": [
        -0.99997830390930176,
        -0.98794072866439819,
        -0.99730175733566284,
        -1
      ],
      "type": "VEC4"
    },
    {
      "bufferView": 1,
      "byteOffset": 2621280,
      "componentType": 5126,
      "count": 65532,
      "max": [
        0.99537801742553711,
        0.98828202486038208
      ],
      "min": [
        0.051633000373840332,
        0.0038320000749081373
      ],
      "type": "VEC2"
    },
    {
      "bufferView": 0,
      "byteOffset": 6512244,
      "componentType": 5125,
      "count": 316113,
      "max": [
        65531
      ],
      "min": [
        0
      ],
      "type": "SCALAR"
    },
    {
      "bufferView": 2,
      "byteOffset": 9436608,
      "componentType": 5126,
      "count": 65532,
      "max": [
        0.7581220269203186,
        8.6854801177978516,
        1.3081849813461304
      ],
      "min": [
        -1.2244470119476318,
        6.983619213104248,
        -1.0826239585876465
      ],
      "type": "VEC3"
    },
    {
      "bufferView": 2,
      "byteOffset": 10222992,
      "componentType": 5126,
      "count": 65532,
      "max": [
        0.99999946355819702,
        0.99997013807296753,
        0.99984687566757202
      ],
      "min": [
        -0.99999463558197021,
        -0.99993985891342163,
        -0.99997550249099731
      ],
      "type": "VEC3"
    },
    {
      "bufferView": 3,
      "byteOffset": 6291072,
      "componentType": 5126,
      "count": 65532,
      "max": [
        0.99998378753662109,
        0.9998708963394165,
        0.99921029806137085,
        1
      ],
      "min": [
        -0.99997508525848389,
        -0.999858558177948,
        -0.99989789724349976,
        -1
      ],
      "type": "VEC4"
    },
    {
      "bufferView": 1,
      "byteOffset": 3145536,
      "componentType": 5126,
      "count": 65532,
      "max": [
        0.98796701431274414,
        0.99801898002624512
      ],
      "min": [
        0.049761001020669937,
        0.021519999951124191
      ],
      "type": "VEC2"
    },
    {
      "bufferView": 0,
      "byteOffset": 7776696,
      "componentType": 5125,
      "count": 318783,
      "max": [
        65531
      ],
      "min": [
        0
      ],
      "type": "SCALAR"
    },
    {
      "bufferView": 2,
      "byteOffset": 11009376,
      "componentType": 5126,
      "count": 65532,
      "max": [
        0.76574802398681641,
        8.6057977676391602,
        1.2298749685287476
      ],
      "min": [
        -1.2812180519104004,
        6.9418320655822754,
        -1.0240650177001953
      ],
      "type": "VEC3"
    },
    {
      "bufferView": 2,
      "byteOffset": 11795760,
      "componentType": 5126,
      "count": 65532,
      "max": [
        0.99999946355819702,
        0.99957746267318726,
        0.9997674822807312
      ],
      "min": [
        -0.99999737739562988,
        -0.99834609031677246,
        -0.99994814395904541
      ],
      "type": "VEC3"
    },
    {
      "bufferView": 3,
      "byteOffset": 7339584,
      "componentType": 5126,
      "count": 65532,
      "max": [
        0.99996596574783325,
        0.99984145164489746,
        0.99163186550140381,
        1
      ],
      "min": [
        -0.9999614953994751,
        -0.99872922897338867,
        -0.99897474050521851,
        -1
      ],
      "type": "VEC4"
    },
    {
      "bufferView": 1,
      "byteOffset": 3669792,
      "componentType": 5126,
      "count": 65532,
      "max": [
        0.98447102308273315,
        0.99888300895690918
      ],
      "min": [
        0.0057850000448524952,
        0.01030999980866909
      ],
      "type": "VEC2"
    },
    {
      "bufferView": 0,
      "byteOffset": 9051828,
      "componentType": 5125,
      "count": 289185,
      "max": [
        65531
      ],
      "min": [
        0
      ],
      "type": "SCALAR"
    },
    {
      "bufferView": 2,
      "byteOffset": 12582144,
      "componentType": 5126,
      "count": 65532,
      "max": [
        0.76625597476959229,
        8.3945426940917969,
        1.4142889976501465
      ],
      "min": [
        -1.2472059726715088,
        6.4466829299926758,
        -0.88692700862884521
      ],
      "type": "VEC3"
    },
    {
      "bufferView": 2,
      "byteOffset": 13368528,
      "componentType": 5126,
      "count": 65532,
      "max": [
        0.99997764825820923,
        0.99995046854019165,
        0.99998664855957031
      ],
      "min": [
        -0.99999713897705078,
        -0.99985009431838989,
        -0.99997550249099731
      ],
      "type": "VEC3"
    },
    {
      "bufferView": 3,
      "byteOffset": 8388096,
      "componentType": 5126,
      "count": 65532,
      "max": [
        0.99992811679840088,
        0.99955576658248901,
        0.99933922290802002,
        1
      ],
      "min": [
        -0.99999904632568359,
        -0.99998581409454346,
        -0.99988150596618652,
        -1
      ],
      "type": "VEC4"
    },
    {
      "bufferView": 1,
      "byteOffset": 4194048,
      "componentType": 5126,
      "count": 65532,
      "max": [
        0.98236298561096191,
        0.99659997224807739
      ],
      "min": [
        0.0037980000488460064,
        0.012600000016391277
      ],
      "type": "VEC2"
    },
    {
      "bufferView": 0,
      "byteOffset": 10208568,
      "componentType": 5125,
      "count": 281856,
      "max": [
        65531
      ],
      "min": [
        0
      ],
      "type": "SCALAR"
    },
    {
      "bufferView": 2,
      "byteOffset": 14154912,
      "componentType": 5126,
      "count": 65532,
      "max": [
        0.77441799640655518,
        8.0306577682495117,
        1.5264569520950317
      ],
      "min": [
        -1.2679920196533203,
        6.3810319900512695,
        -0.7758520245552063
      ],
      "type": "VEC3"
    },
    {
      "bufferView": 2,
      "byteOffset": 14941296,
      "componentType": 5126,
      "count": 65532,
      "max": [
        0.99995064735412598,
        0.99989938735961914,
        0.99993109703063965
      ],
      "min": [
        -0.99996864795684814,
        -0.999350905418396,
        -0.99988877773284912
      ],
      "type": "VEC3"
    },
    {
      "bufferView": 3,
      "byteOffset": 9436608,
      "componentType": 5126,
      "count": 65532,
      "max": [
        0.99982136487960815,
        0.9991002082824707,
        0.99996894598007202,
        1
      ],
      "min": [
        -0.99997597932815552,
        -0.9991496205329895,
        -0.99840539693832397,
        -1
      ],
      "type": "VEC4"
    },
    {
      "bufferView": 1,
      "byteOffset": 4718304,
      "componentType": 5126,
      "count": 65532,
      "max": [
        0.99619197845458984,
        0.99953299760818481
      ],
      "min": [
        0.0039380001835525036,
        0.003734000027179718
      ],
      "type": "VEC2"
    },
    {
      "bufferView": 0,
      "byteOffset": 11335992,
      "componentType": 5125,
      "count": 329928,
      "max": [
        65531
      ],
      "min": [
        0
      ],
      "type": "SCALAR"
    },
    {
      "bufferView": 2,
      "byteOffset": 15727680,
      "componentType": 5126,
      "count": 29300,
      "max": [
        0.76234400272369385,
        7.9806380271911621,
        1.5900709629058838
      ],
      "min": [
        -0.89083302021026611,
        6.3006877899169922,
        -0.65522801876068115
      ],
      "type": "VEC3"
    },
    {
      "bufferView": 2,
      "byteOffset": 16079280,
      "componentType": 5126,
      "count": 29300,
      "max": [
        0.99990946054458618,
        0.99989938735961914,
        0.99983435869216919
      ],
      "min": [
        -0.99996864795684814,
        -0.99971145391464233,
        -0.99997299909591675
      ],
      "type": "VEC3"
    },
    {
      "bufferView": 3,
      "byteOffset": 10485120,
      "componentType": 5126,
      "count": 29300,
      "max": [
        0.99972641468048096,
        0.99966859817504883,
        0.99980473518371582,
        1
      ],
      "min": [
        -0.99999904632568359,
        -0.9991186261177063,
        -0.99622958898544312,
        -1
      ],
      "type": "VEC4"
    },
    {
      "bufferView": 1,
      "byteOffset": 5242560,
      "componentType": 5126,
      "count": 29300,
      "max": [
        0.99567598104476929,
        0.99993598461151123
      ],
      "min": [
        0.0036279999185353518,
        0.0042039998807013035
      ],
      "type": "VEC2"
    },
    {
      "bufferView": 0,
      "byteOffset": 12655704,
      "componentType": 5125,
      "count": 136074,
      "max": [
        29299
      ],
      "min": [
        0
      ],
      "type": "SCALAR"
    }
  ],
  "asset": {
    "extras": {
      "author": "3DandVR (https://sketchfab.com/3DandVR)",
      "license": "CC-BY-4.0 (http://creativecommons.org/licenses/by/4.0/)",
      "source": "https://sketchfab.com/models/300371f38b92494fbb2a5f1709db2104",
      "title": "Chinese Bronze Ding Vessel"
    },
    "generator": "Sketchfab-3.18.6",
    "version": "2.0"
  },
  "bufferViews": [
    {
      "buffer": 0,
      "byteLength": 13200000,
      "byteOffset": 0,
      "name": "floatBufferViews",
      "target": 34963
    },
    {
      "buffer": 0,
      "byteLength": 5476960,
      "byteOffset": 13200000,
      "byteStride": 8,
      "name": "floatBufferViews",
      "target": 34962
    },
    {
      "buffer": 0,
      "byteLength": 16430880,
      "byteOffset": 18676960,
      "byteStride": 12,
      "name": "floatBufferViews",
      "target": 34962
    },
    {
      "buffer": 0,
      "byteLength": 10953920,
      "byteOffset": 35107840,
      "byteStride": 16,
      "name": "floatBufferViews",
      "target": 34962
    }
  ],
  "buffers": [
    {
      "byteLength": 46061760,
      "uri": "scene.bin"
    }
  ],
  "extensionsUsed": [
    "KHR_materials_unlit"
  ],
  "images": [
    {
      "uri": "textures/Figur-Trog-Chinesisch-v2_1M.1001_baseColor.jpeg"
    }
  ],
  "materials": [
    {
      "doubleSided": true,
      "emissiveFactor": [
        0,
        0,
        0
      ],
      "extensions": {
        "KHR_materials_unlit": {}
      },
      "name": "Figur-Trog-Chinesisch-v2_1M.1001",
      "pbrMetallicRoughness": {
        "baseColorFactor": [
          1,
          1,
          1,
          1
        ],
        "baseColorTexture": {
          "index": 0,
          "texCoord": 0
        },
        "metallicFactor": 0,
        "roughnessFactor": 1
      }
    }
  ],
  "meshes": [
    {
      "primitives": [
        {
          "attributes": {
            "NORMAL": 1,
            "POSITION": 0,
            "TANGENT": 2,
            "TEXCOORD_0": 3
          },
          "indices": 4,
          "material": 0,
          "mode": 4
        }
      ]
    },
    {
      "primitives": [
        {
          "attributes": {
            "NORMAL": 6,
            "POSITION": 5,
            "TANGENT": 7,
            "TEXCOORD_0": 8
          },
          "indices": 9,
          "material": 0,
          "mode": 4
        }
      ]
    },
    {
      "primitives": [
        {
          "attributes": {
            "NORMAL": 11,
            "POSITION": 10,
            "TANGENT": 12,
            "TEXCOORD_0": 13
          },
          "indices": 14,
          "material": 0,
          "mode": 4
        }
      ]
    },
    {
      "primitives": [
        {
          "attributes": {
            "NORMAL": 16,
            "POSITION": 15,
            "TANGENT": 17,
            "TEXCOORD_0": 18
          },
          "indices": 19,
          "material": 0,
          "mode": 4
        }
      ]
    },
    {
      "primitives": [
        {
          "attributes": {
            "NORMAL": 21,
            "POSITION": 20,
            "TANGENT": 22,
            "TEXCOORD_0": 23
          },
          "indices": 24,
          "material": 0,
          "mode": 4
        }
      ]
    },
    {
      "primitives": [
        {
          "attributes": {
            "NORMAL": 26,
            "POSITION": 25,
            "TANGENT": 27,
            "TEXCOORD_0": 28
          },
          "indices": 29,
          "material": 0,
          "mode": 4
        }
      ]
    },
    {
      "primitives": [
        {
          "attributes": {
            "NORMAL": 31,
            "POSITION": 30,
            "TANGENT": 32,
            "TEXCOORD_0": 33
          },
          "indices": 34,
          "material": 0,
          "mode": 4
        }
      ]
    },
    {
      "primitives": [
        {
          "attributes": {
            "NORMAL": 36,
            "POSITION": 35,
            "TANGENT": 37,
            "TEXCOORD_0": 38
          },
          "indices": 39,
          "material": 0,
          "mode": 4
        }
      ]
    },
    {
      "primitives": [
        {
          "attributes": {
            "NORMAL": 41,
            "POSITION": 40,
            "TANGENT": 42,
            "TEXCOORD_0": 43
          },
          "indices": 44,
          "material": 0,
          "mode": 4
        }
      ]
    },
    {
      "primitives": [
        {
          "attributes": {
            "NORMAL": 46,
            "POSITION": 45,
            "TANGENT": 47,
            "TEXCOORD_0": 48
          },
          "indices": 49,
          "material": 0,
          "mode": 4
        }
      ]
    },
    {
      "primitives": [
        {
          "attributes": {
            "NORMAL": 51,
            "POSITION": 50,
            "TANGENT": 52,
            "TEXCOORD_0": 53
          },
          "indices": 54,
          "material": 0,
          "mode": 4
        }
      ]
    }
  ],
  "nodes": [
    {
      "children": [
        1
      ],
      "name": "RootNode (gltf orientation matrix)",
      "rotation": [
        -0.70710678118654746,
        -0,
        -0,
        0.70710678118654757
      ]
    },
    {
      "children": [
        2
      ],
      "matrix": [
        0.27724465727806091,
        0.9589076042175293,
        0.060263294726610184,
        0,
        -0.42859947681427002,
        0.1795671284198761,
        -0.88547056913375854,
        0,
        -0.85990571975708008,
        0.21966315805912018,
        0.46077132225036621,
        0,
        3.2559704780578613,
        6.7706665992736816,
        7.0835247039794922,
        1
      ],
      "name": "RootNode (model correction matrix)"
    },
    {
      "children": [
        3,
        4,
        5,
        6,
        7,
        8,
        9,
        10,
        11,
        12,
        13
      ],
      "name": "Figur-Trog-Chinesisch-v2_1M.obj.cleaner.materialmerger.gles"
    },
    {
      "mesh": 0,
      "name": ""
    },
    {
      "mesh": 1,
      "name": ""
    },
    {
      "mesh": 2,
      "name": ""
    },
    {
      "mesh": 3,
      "name": ""
    },
    {
      "mesh": 4,
      "name": ""
    },
    {
      "mesh": 5,
      "name": ""
    },
    {
      "mesh": 6,
      "name": ""
    },
    {
      "mesh": 7,
      "name": ""
    },
    {
      "mesh": 8,
      "name": ""
    },
    {
      "mesh": 9,
      "name": ""
    },
    {
      "mesh": 10,
      "name": ""
    }
  ],
  "samplers": [
    {
      "magFilter": 9729,
      "minFilter": 9987,
      "wrapS": 10497,
      "wrapT": 10497
    }
  ],
  "scene": 0,
  "scenes": [
    {
      "name": "OSG_Scene",
      "nodes": [
        0
      ]
    }
  ],
  "textures": [
    {
      "sampler": 0,
      "source": 0
    }
  ]
}

